<?xml version="1.0" standalone="no"?>
<!DOCTYPE svg PUBLIC "-//W3C//DTD SVG 20010904//EN"
 "http://www.w3.org/TR/2001/REC-SVG-20010904/DTD/svg10.dtd">
<svg version="1.0" xmlns="http://www.w3.org/2000/svg"
 width="1024.000000pt" height="1024.000000pt" viewBox="0 0 1024.000000 1024.000000"
 preserveAspectRatio="xMidYMid meet">
<metadata>
Created by potrace 1.11, written by Peter Selinger 2001-2013
</metadata>
<g transform="translate(0.000000,1024.000000) scale(0.100000,-0.100000)"
fill="#000000" stroke="none">
<path d="M5074 9873 c-26 -54 -79 -168 -119 -253 -40 -85 -93 -198 -118 -250
-52 -111 -110 -235 -168 -357 -23 -49 -43 -90 -44 -92 -5 -4 -179 111 -183
121 -2 5 -7 8 -11 8 -5 0 -48 24 -97 53 -239 144 -435 232 -709 317 -113 35
-247 53 -400 54 -181 1 -236 -5 -350 -41 -374 -117 -628 -450 -728 -954 -41
-202 -51 -321 -51 -564 0 -193 11 -392 28 -510 3 -16 8 -52 11 -80 5 -43 25
-169 40 -255 5 -27 5 -28 29 -142 9 -42 16 -81 16 -86 0 -5 -46 -24 -102 -42
-643 -209 -1163 -504 -1484 -843 -311 -328 -421 -683 -324 -1047 12 -46 79
-211 89 -220 3 -3 17 -25 30 -50 41 -78 162 -231 261 -330 213 -213 491 -403
834 -570 142 -68 381 -169 489 -205 31 -11 57 -24 57 -30 0 -6 -68 -155 -151
-331 -83 -175 -162 -344 -176 -374 -13 -30 -42 -91 -63 -135 -88 -184 -170
-357 -170 -360 0 -1 -29 -63 -64 -136 -35 -74 -115 -244 -179 -379 -63 -135
-132 -281 -153 -325 -21 -44 -39 -82 -39 -85 -1 -3 -31 -67 -68 -144 -37 -76
-67 -140 -67 -141 0 -2 -31 -67 -69 -146 -37 -79 -80 -169 -93 -199 -14 -30
-49 -104 -78 -165 -29 -60 -67 -141 -85 -180 l-33 -70 2275 -3 c1251 -1 3295
-1 4543 0 l2268 3 -64 134 c-35 73 -64 135 -64 136 0 2 -30 65 -66 142 -82
172 -125 262 -157 333 -14 30 -53 114 -87 185 -34 72 -75 157 -90 190 -47 103
-100 214 -176 374 -41 84 -74 155 -74 156 0 2 -27 61 -61 131 -33 70 -75 159
-93 198 -19 39 -49 105 -69 146 -382 810 -496 1057 -493 1066 2 6 17 15 32 18
34 9 237 88 312 122 29 13 55 24 59 24 12 0 291 140 386 194 790 449 1137
1021 955 1576 -24 75 -101 230 -141 284 -189 261 -409 452 -752 654 -163 95
-513 262 -635 303 -205 67 -365 129 -363 141 1 7 14 76 28 153 14 77 28 156
31 175 8 59 16 114 19 132 2 9 7 48 10 85 4 37 9 75 10 84 7 37 18 284 18 404
0 124 -11 364 -18 375 -1 3 -6 32 -9 65 -4 33 -9 69 -12 80 -2 11 -6 31 -8 45
-16 85 -47 201 -78 289 -70 199 -164 356 -287 480 -144 144 -282 217 -506 267
-16 3 -93 7 -170 9 -130 3 -200 -4 -350 -34 -66 -13 -256 -73 -336 -106 -62
-26 -324 -154 -364 -178 -65 -39 -292 -183 -300 -189 -5 -5 -26 -20 -45 -34
l-35 -25 -41 88 c-23 48 -117 248 -209 443 -92 195 -185 392 -206 438 -22 45
-41 82 -44 82 -3 0 -26 -44 -51 -97z m2046 -1088 c102 -19 179 -111 243 -292
29 -81 63 -247 74 -361 15 -145 7 -562 -12 -662 -1 -8 -6 -42 -10 -75 -4 -33
-9 -69 -11 -80 -3 -20 -7 -43 -19 -128 -4 -23 -8 -44 -10 -47 -2 -4 -7 -29
-11 -56 -9 -74 -17 -84 -56 -74 -18 5 -53 12 -78 15 -24 4 -48 8 -51 11 -4 2
-24 6 -45 9 -37 6 -57 9 -114 20 -41 8 -73 14 -120 20 -25 3 -70 10 -100 15
-30 5 -71 11 -90 14 -98 14 -198 26 -221 28 -32 3 -17 -26 -264 503 -37 79
-96 205 -162 345 -25 52 -65 137 -90 189 l-44 94 23 21 c52 47 313 220 423
282 292 163 570 241 745 209z m-3785 -15 c77 -13 95 -18 196 -51 188 -61 455
-206 674 -362 54 -40 103 -75 107 -78 5 -3 -13 -52 -40 -110 -27 -57 -66 -140
-87 -184 -21 -44 -55 -116 -75 -160 -80 -170 -111 -237 -209 -444 -56 -117
-101 -217 -101 -221 0 -10 -35 -18 -110 -25 -30 -3 -64 -7 -75 -9 -11 -2 -47
-7 -80 -10 -33 -4 -67 -9 -75 -11 -8 -2 -35 -6 -60 -9 -25 -4 -56 -8 -70 -11
-14 -2 -68 -11 -120 -20 -52 -9 -139 -25 -193 -36 -85 -18 -141 -20 -124 -3 3
3 1 21 -5 41 -12 42 -14 53 -34 163 -16 92 -18 101 -33 218 -22 165 -26 235
-26 452 0 197 5 290 19 365 2 11 7 40 12 65 4 25 8 47 9 50 1 3 5 19 9 35 23
95 82 223 127 278 70 85 182 109 364 77z m33 -2510 c-35 -67 -68 -129 -73
-138 -6 -10 -26 -46 -44 -80 l-35 -64 -27 71 c-48 126 -102 282 -98 286 2 2
22 6 44 10 22 3 96 16 165 29 69 12 126 19 128 15 2 -4 -25 -62 -60 -129z
m3622 104 c159 -31 168 -34 163 -54 -3 -11 -31 -90 -63 -176 -65 -179 -50
-174 -129 -36 -39 66 -141 277 -141 289 0 6 66 -3 170 -23z m-4535 -329 c23
-66 44 -127 48 -135 3 -8 17 -46 31 -85 14 -38 34 -95 46 -125 12 -30 27 -71
35 -90 22 -60 152 -363 169 -395 9 -16 16 -35 16 -41 0 -6 -35 -94 -78 -195
-72 -169 -123 -296 -215 -534 -19 -49 -56 -134 -82 -188 -56 -115 -31 -111
-235 -35 -335 125 -598 263 -825 434 -261 196 -397 383 -391 535 8 169 218
395 559 602 97 59 299 163 407 209 139 60 438 167 459 165 8 -1 31 -50 56
-122z m5537 69 c549 -191 992 -460 1187 -721 111 -149 118 -251 25 -400 -88
-141 -296 -323 -527 -460 -91 -54 -338 -183 -351 -183 -2 0 -33 -13 -68 -29
-62 -28 -318 -126 -369 -141 -25 -7 -27 -4 -62 79 -20 47 -63 156 -95 241 -67
174 -173 428 -238 568 -24 52 -44 99 -44 106 0 11 159 390 181 428 5 10 9 23
9 29 0 6 7 25 15 42 30 67 137 357 166 455 6 17 16 32 24 32 7 0 73 -21 147
-46z"/>
</g>
</svg>
